<svg viewBox="0 0 375 167" fill="none" xmlns="http://www.w3.org/2000/svg">

<path class="path" opacity="0.951181" d="M-13 1.00649C-13 1.00649 54.7328 -0.948561 97.7457 8.63546C140.758 18.2195 157.055 29.7054 207.789 39.2894C265.199 47.8085 331.915 69.5 378 69.5" stroke="white" stroke-width="3" stroke-linecap="round" stroke-linejoin="round"/>
<path class="path" d="M-13 1.97048C-13 1.97048 87.384 0.913243 116.035 15.7146C144.686 30.516 146.077 49 186.128 63C226.179 77 241.24 115.912 278.077 136C302.096 149.098 309.038 143.355 333.867 155.263C347.117 161.618 362.705 166.9 383 166.9" stroke="white" stroke-width="3" stroke-linecap="round" stroke-linejoin="round"/>

<g class="circleGreen" filter="url(#filter0_d)">
<rect x="313" y="143" width="14" height="14" rx="7" fill="#04CD00"/>
<rect x="314.5" y="144.5" width="11" height="11" rx="5.5" stroke="white" stroke-width="3"/>
</g>
<g class="circleRed" filter="url(#filter1_d)">
<rect x="313" y="55" width="14" height="14" rx="7" fill="#EE304E"/>
<rect x="314.5" y="56.5" width="11" height="11" rx="5.5" stroke="white" stroke-width="3"/>
</g>
<g class="labels">
<g class="pulseElem" clip-path="url(#clip0)">
<g filter="url(#filter2_d)">
<path fill-rule="evenodd" clip-rule="evenodd" d="M295 121C295 115.477 299.477 111 305 111H336C341.523 111 346 115.477 346 121V125C346 130.523 341.523 135 336 135H325L320 138L315 135H305C299.477 135 295 130.523 295 125V121Z" fill="white"/>
</g>
<path d="M305.633 119.545V128H307.402V125.334H308.984C310.766 125.334 312.002 124.174 312.002 122.439C312.002 120.699 310.807 119.545 309.072 119.545H305.633ZM307.402 120.945H308.604C309.617 120.945 310.203 121.484 310.203 122.445C310.203 123.412 309.611 123.951 308.598 123.951H307.402V120.945ZM314.82 120.928H316.326C317.205 120.928 317.756 121.455 317.756 122.275C317.756 123.113 317.234 123.623 316.344 123.623H314.82V120.928ZM314.82 124.906H316.238L317.814 128H319.818L318.037 124.643C319.01 124.262 319.572 123.324 319.572 122.24C319.572 120.57 318.459 119.545 316.514 119.545H313.051V128H314.82V124.906ZM324.553 119.398C322.045 119.398 320.475 121.08 320.475 123.775C320.475 126.465 322.045 128.146 324.553 128.146C327.055 128.146 328.631 126.465 328.631 123.775C328.631 121.08 327.055 119.398 324.553 119.398ZM324.553 120.875C325.936 120.875 326.82 122 326.82 123.775C326.82 125.545 325.936 126.664 324.553 126.664C323.164 126.664 322.279 125.545 322.279 123.775C322.279 122 323.17 120.875 324.553 120.875Z" fill="black"/>
<path fill-rule="evenodd" clip-rule="evenodd" d="M335.883 129.47C335.493 129.86 334.859 129.86 334.469 129.47L331.293 126.294C330.669 125.67 331.099 124.604 331.981 124.587L333.198 124.563V119C333.198 118.448 333.645 118 334.198 118H336.315C336.868 118 337.315 118.448 337.315 119V124.484L338.457 124.462C339.357 124.445 339.82 125.533 339.184 126.169L335.883 129.47Z" fill="#04CD00"/>
</g>
<g clip-path="url(#clip1)">
<g filter="url(#filter3_d)">
<path fill-rule="evenodd" clip-rule="evenodd" d="M295 33C295 27.4772 299.477 23 305 23H336C341.523 23 346 27.4772 346 33V37C346 42.5228 341.523 47 336 47H325L320 50L315 47H305C299.477 47 295 42.5228 295 37V33Z" fill="white"/>
</g>
<path d="M307.432 40V36.6719H310.871V35.2715H307.432V33.0039H311.199V31.5449H305.662V40H307.432ZM312.102 40H313.812V36.4902C313.812 35.6055 314.305 35.0898 315.148 35.0898C315.395 35.0898 315.629 35.1309 315.77 35.1895V33.6836C315.652 33.6484 315.482 33.6191 315.283 33.6191C314.545 33.6191 314.012 34.0527 313.789 34.8496H313.754V33.7188H312.102V40ZM319.08 34.8496C319.842 34.8496 320.363 35.4004 320.398 36.2031H317.732C317.791 35.418 318.33 34.8496 319.08 34.8496ZM320.422 38.0781C320.264 38.5586 319.783 38.8691 319.156 38.8691C318.283 38.8691 317.715 38.2539 317.715 37.3574V37.252H322.045V36.7305C322.045 34.8203 320.891 33.584 319.062 33.584C317.205 33.584 316.033 34.8848 316.033 36.8887C316.033 38.8984 317.193 40.1348 319.127 40.1348C320.68 40.1348 321.805 39.3086 321.992 38.0781H320.422ZM325.748 34.8496C326.51 34.8496 327.031 35.4004 327.066 36.2031H324.4C324.459 35.418 324.998 34.8496 325.748 34.8496ZM327.09 38.0781C326.932 38.5586 326.451 38.8691 325.824 38.8691C324.951 38.8691 324.383 38.2539 324.383 37.3574V37.252H328.713V36.7305C328.713 34.8203 327.559 33.584 325.73 33.584C323.873 33.584 322.701 34.8848 322.701 36.8887C322.701 38.8984 323.861 40.1348 325.795 40.1348C327.348 40.1348 328.473 39.3086 328.66 38.0781H327.09Z" fill="black"/>
<path fill-rule="evenodd" clip-rule="evenodd" d="M335.883 41.4697C335.493 41.8602 334.859 41.8602 334.469 41.4697L331.293 38.2937C330.669 37.6702 331.099 36.6037 331.981 36.5868L333.198 36.5634V31C333.198 30.4477 333.645 30 334.198 30H336.315C336.868 30 337.315 30.4477 337.315 31V36.4842L338.457 36.4623C339.357 36.445 339.82 37.5327 339.184 38.1692L335.883 41.4697Z" fill="#EE304E"/>
</g>
</g>
<defs>
    <style>
        .path {
            stroke-dasharray: 1000;
            stroke-dashoffset: 0;
            animation: draw 5s linear both;
        }
                
        @keyframes draw {
        from {
            stroke-dashoffset: 1000;
        }
        to {
            stroke-dashoffset: 0;
        }
        }


        .labels {
            animation: appear 1s linear both;
            animation-delay: 2s;
        }

        @keyframes appear {
            0% {
                transform: scale(0);
                transform-origin: 85% center;
            }
            50% {
                transform: scale(1.2);
                transform-origin: 85% center;
            }
            100% {
                transform: scale(1);
                transform-origin: 85% center;
            }
        }

        .circleRed {
            animation: appearCircleRed 1s linear both;
            animation-delay: 2s;
        }

                @keyframes appearCircleRed {
            0% {
                transform: scale(0);
                transform-origin: 85% 45%;
            }
            50% {
                transform: scale(1.2);
                transform-origin: 85% 45%;
            }
            100% {
                transform: scale(1);
                transform-origin: 85% 45%;
            }
        }

        .circleGreen {
            animation: appearCircleGreen 1s linear both;
            animation-delay: 2s;
        }

                @keyframes appearCircleGreen {
            0% {
                transform: scale(0);
                transform-origin: 85% 85%;
            }
            50% {
                transform: scale(1.2);
                transform-origin: 85% 85%;
            }
            100% {
                transform: scale(1);
                transform-origin: 85% 85%;
            }
        }

        .pulseElem {
            animation: pulse 2000ms infinite both;
            animation-delay: 3s;
        }
        
        @keyframes pulse {
            0% {
                transform: scale(1);
                transform-origin: 85% 75%;
            }
            20% {
                transform: scale(1.1);
                transform-origin: 85% 75%;
            }
            30% {
                transform: scale(1);
                transform-origin: 85% 75%;
            }
            50% {
                transform: scale(1.1);
                transform-origin: 85% 75%;
            }
            60% {
                transform: scale(1);
                transform-origin: 85% 75%;
            }
            90% {
                transform: scale(1);
                transform-origin: 85% 75%;
            }
            100% {
                transform: scale(0.9);
                transform-origin: 85% 75%;
            }
        }
        </style>
<filter id="filter0_d" x="307" y="139" width="26" height="26" filterUnits="userSpaceOnUse" color-interpolation-filters="sRGB">
<feFlood flood-opacity="0" result="BackgroundImageFix"/>
<feColorMatrix in="SourceAlpha" type="matrix" values="0 0 0 0 0 0 0 0 0 0 0 0 0 0 0 0 0 0 127 0" result="hardAlpha"/>
<feOffset dy="2"/>
<feGaussianBlur stdDeviation="3"/>
<feColorMatrix type="matrix" values="0 0 0 0 0 0 0 0 0 0 0 0 0 0 0 0 0 0 0.139942 0"/>
<feBlend mode="normal" in2="BackgroundImageFix" result="effect1_dropShadow"/>
<feBlend mode="normal" in="SourceGraphic" in2="effect1_dropShadow" result="shape"/>
</filter>
<filter id="filter1_d" x="307" y="51" width="26" height="26" filterUnits="userSpaceOnUse" color-interpolation-filters="sRGB">
<feFlood flood-opacity="0" result="BackgroundImageFix"/>
<feColorMatrix in="SourceAlpha" type="matrix" values="0 0 0 0 0 0 0 0 0 0 0 0 0 0 0 0 0 0 127 0" result="hardAlpha"/>
<feOffset dy="2"/>
<feGaussianBlur stdDeviation="3"/>
<feColorMatrix type="matrix" values="0 0 0 0 0 0 0 0 0 0 0 0 0 0 0 0 0 0 0.139942 0"/>
<feBlend mode="normal" in2="BackgroundImageFix" result="effect1_dropShadow"/>
<feBlend mode="normal" in="SourceGraphic" in2="effect1_dropShadow" result="shape"/>
</filter>
<filter id="filter2_d" x="291" y="109" width="59" height="35" filterUnits="userSpaceOnUse" color-interpolation-filters="sRGB">
<feFlood flood-opacity="0" result="BackgroundImageFix"/>
<feColorMatrix in="SourceAlpha" type="matrix" values="0 0 0 0 0 0 0 0 0 0 0 0 0 0 0 0 0 0 127 0" result="hardAlpha"/>
<feOffset dy="2"/>
<feGaussianBlur stdDeviation="2"/>
<feColorMatrix type="matrix" values="0 0 0 0 0.352925 0 0 0 0 0 0 0 0 0 0.487432 0 0 0 0.258332 0"/>
<feBlend mode="normal" in2="BackgroundImageFix" result="effect1_dropShadow"/>
<feBlend mode="normal" in="SourceGraphic" in2="effect1_dropShadow" result="shape"/>
</filter>
<filter id="filter3_d" x="291" y="21" width="59" height="35" filterUnits="userSpaceOnUse" color-interpolation-filters="sRGB">
<feFlood flood-opacity="0" result="BackgroundImageFix"/>
<feColorMatrix in="SourceAlpha" type="matrix" values="0 0 0 0 0 0 0 0 0 0 0 0 0 0 0 0 0 0 127 0" result="hardAlpha"/>
<feOffset dy="2"/>
<feGaussianBlur stdDeviation="2"/>
<feColorMatrix type="matrix" values="0 0 0 0 0.352925 0 0 0 0 0 0 0 0 0 0.487432 0 0 0 0.258332 0"/>
<feBlend mode="normal" in2="BackgroundImageFix" result="effect1_dropShadow"/>
<feBlend mode="normal" in="SourceGraphic" in2="effect1_dropShadow" result="shape"/>
</filter>
<clipPath id="clip0">
<rect width="51" height="27" fill="white" transform="translate(295 111)"/>
</clipPath>
<clipPath id="clip1">
<rect width="51" height="27" fill="white" transform="translate(295 23)"/>
</clipPath>
</defs>
</svg>
